<svg xmlns="http://www.w3.org/2000/svg" version="1.1" xmlns:xlink="http://www.w3.org/1999/xlink" xmlns:svgjs="http://svgjs.com/svgjs" width="1440" height="560" preserveAspectRatio="none" viewBox="0 0 1440 560"><g mask="url(&quot;#SvgjsMask1149&quot;)" fill="none"><path d="M0 -70L60.62 -35L60.62 35L0 70L-60.62 35L-60.62 -35zM60.62 35L121.25 70L121.25 140L60.62 175L0 140L0 70zM0 140L60.62 175L60.62 245L0 280L-60.62 245L-60.62 175zM60.62 245L121.25 280L121.25 350L60.62 385L0 350L0 280zM0 350L60.62 385L60.62 455L0 490L-60.62 455L-60.62 385zM60.62 455L121.25 490L121.25 560L60.62 595L0 560L0 490zM121.25 -70L181.87 -35L181.87 35L121.25 70L60.62 35L60.62 -35zM181.87 35L242.49 70L242.49 140L181.87 175L121.25 140L121.25 70zM121.25 140L181.87 175L181.87 245L121.25 280L60.62 245L60.62 175zM181.87 245L242.49 280L242.49 350L181.87 385L121.25 350L121.25 280zM121.25 350L181.87 385L181.87 455L121.25 490L60.62 455L60.62 385zM181.87 455L242.49 490L242.49 560L181.87 595L121.25 560L121.25 490zM242.49 -70L303.12 -35L303.12 35L242.49 70L181.87 35L181.87 -35zM303.12 35L363.74 70L363.74 140L303.12 175L242.49 140L242.49 70zM242.49 140L303.12 175L303.12 245L242.49 280L181.87 245L181.87 175zM303.12 245L363.74 280L363.74 350L303.12 385L242.49 350L242.49 280zM242.49 350L303.12 385L303.12 455L242.49 490L181.87 455L181.87 385zM303.12 455L363.74 490L363.74 560L303.12 595L242.49 560L242.49 490zM363.74 -70L424.36 -35L424.36 35L363.74 70L303.12 35L303.12 -35zM424.36 35L484.99 70L484.99 140L424.36 175L363.74 140L363.74 70zM363.74 140L424.36 175L424.36 245L363.74 280L303.12 245L303.12 175zM424.36 245L484.99 280L484.99 350L424.36 385L363.74 350L363.74 280zM363.74 350L424.36 385L424.36 455L363.74 490L303.12 455L303.12 385zM424.36 455L484.99 490L484.99 560L424.36 595L363.74 560L363.74 490zM484.99 -70L545.61 -35L545.61 35L484.99 70L424.36 35L424.36 -35zM545.61 35L606.24 70L606.24 140L545.61 175L484.99 140L484.99 70zM484.99 140L545.61 175L545.61 245L484.99 280L424.36 245L424.36 175zM545.61 245L606.24 280L606.24 350L545.61 385L484.99 350L484.99 280zM484.99 350L545.61 385L545.61 455L484.99 490L424.36 455L424.36 385zM545.61 455L606.24 490L606.24 560L545.61 595L484.99 560L484.99 490zM606.24 -70L666.86 -35L666.86 35L606.24 70L545.61 35L545.61 -35zM666.86 35L727.48 70L727.48 140L666.86 175L606.24 140L606.24 70zM606.24 140L666.86 175L666.86 245L606.24 280L545.61 245L545.61 175zM666.86 245L727.48 280L727.48 350L666.86 385L606.24 350L606.24 280zM606.24 350L666.86 385L666.86 455L606.24 490L545.61 455L545.61 385zM666.86 455L727.48 490L727.48 560L666.86 595L606.24 560L606.24 490zM727.48 -70L788.11 -35L788.11 35L727.48 70L666.86 35L666.86 -35zM788.11 35L848.73 70L848.73 140L788.11 175L727.48 140L727.48 70zM727.48 140L788.11 175L788.11 245L727.48 280L666.86 245L666.86 175zM788.11 245L848.73 280L848.73 350L788.11 385L727.48 350L727.48 280zM727.48 350L788.11 385L788.11 455L727.48 490L666.86 455L666.86 385zM788.11 455L848.73 490L848.73 560L788.11 595L727.48 560L727.48 490zM848.73 -70L909.35 -35L909.35 35L848.73 70L788.11 35L788.11 -35zM909.35 35L969.98 70L969.98 140L909.35 175L848.73 140L848.73 70zM848.73 140L909.35 175L909.35 245L848.73 280L788.11 245L788.11 175zM909.35 245L969.98 280L969.98 350L909.35 385L848.73 350L848.73 280zM848.73 350L909.35 385L909.35 455L848.73 490L788.11 455L788.11 385zM909.35 455L969.98 490L969.98 560L909.35 595L848.73 560L848.73 490zM969.98 -70L1030.6 -35L1030.6 35L969.98 70L909.35 35L909.35 -35zM1030.6 35L1091.22 70L1091.22 140L1030.6 175L969.98 140L969.98 70zM969.98 140L1030.6 175L1030.6 245L969.98 280L909.35 245L909.35 175zM1030.6 245L1091.22 280L1091.22 350L1030.6 385L969.98 350L969.98 280zM969.98 350L1030.6 385L1030.6 455L969.98 490L909.35 455L909.35 385zM1030.6 455L1091.22 490L1091.22 560L1030.6 595L969.98 560L969.98 490zM1091.22 -70L1151.85 -35L1151.85 35L1091.22 70L1030.6 35L1030.6 -35zM1151.85 35L1212.47 70L1212.47 140L1151.85 175L1091.22 140L1091.22 70zM1091.22 140L1151.85 175L1151.85 245L1091.22 280L1030.6 245L1030.6 175zM1151.85 245L1212.47 280L1212.47 350L1151.85 385L1091.22 350L1091.22 280zM1091.22 350L1151.85 385L1151.85 455L1091.22 490L1030.6 455L1030.6 385zM1151.85 455L1212.47 490L1212.47 560L1151.85 595L1091.22 560L1091.22 490zM1212.47 -70L1273.09 -35L1273.09 35L1212.47 70L1151.85 35L1151.85 -35zM1273.09 35L1333.72 70L1333.72 140L1273.09 175L1212.47 140L1212.47 70zM1212.47 140L1273.09 175L1273.09 245L1212.47 280L1151.85 245L1151.85 175zM1273.09 245L1333.72 280L1333.72 350L1273.09 385L1212.47 350L1212.47 280zM1212.47 350L1273.09 385L1273.09 455L1212.47 490L1151.85 455L1151.85 385zM1273.09 455L1333.72 490L1333.72 560L1273.09 595L1212.47 560L1212.47 490zM1333.72 -70L1394.34 -35L1394.34 35L1333.72 70L1273.09 35L1273.09 -35zM1394.34 35L1454.96 70L1454.96 140L1394.34 175L1333.72 140L1333.72 70zM1333.72 140L1394.34 175L1394.34 245L1333.72 280L1273.09 245L1273.09 175zM1394.34 245L1454.96 280L1454.96 350L1394.34 385L1333.72 350L1333.72 280zM1333.72 350L1394.34 385L1394.34 455L1333.72 490L1273.09 455L1273.09 385zM1394.34 455L1454.96 490L1454.96 560L1394.34 595L1333.72 560L1333.72 490z" stroke="rgba(0, 0, 0, 0.88)" stroke-width="2"></path><path d="M-7 -70 a7 7 0 1 0 14 0 a7 7 0 1 0 -14 0zM53.62 -35 a7 7 0 1 0 14 0 a7 7 0 1 0 -14 0zM53.62 35 a7 7 0 1 0 14 0 a7 7 0 1 0 -14 0zM-7 70 a7 7 0 1 0 14 0 a7 7 0 1 0 -14 0zM-67.62 35 a7 7 0 1 0 14 0 a7 7 0 1 0 -14 0zM-67.62 -35 a7 7 0 1 0 14 0 a7 7 0 1 0 -14 0zM114.25 70 a7 7 0 1 0 14 0 a7 7 0 1 0 -14 0zM114.25 140 a7 7 0 1 0 14 0 a7 7 0 1 0 -14 0zM53.62 175 a7 7 0 1 0 14 0 a7 7 0 1 0 -14 0zM-7 140 a7 7 0 1 0 14 0 a7 7 0 1 0 -14 0zM53.62 245 a7 7 0 1 0 14 0 a7 7 0 1 0 -14 0zM-7 280 a7 7 0 1 0 14 0 a7 7 0 1 0 -14 0zM-67.62 245 a7 7 0 1 0 14 0 a7 7 0 1 0 -14 0zM-67.62 175 a7 7 0 1 0 14 0 a7 7 0 1 0 -14 0zM114.25 280 a7 7 0 1 0 14 0 a7 7 0 1 0 -14 0zM114.25 350 a7 7 0 1 0 14 0 a7 7 0 1 0 -14 0zM53.62 385 a7 7 0 1 0 14 0 a7 7 0 1 0 -14 0zM-7 350 a7 7 0 1 0 14 0 a7 7 0 1 0 -14 0zM53.62 455 a7 7 0 1 0 14 0 a7 7 0 1 0 -14 0zM-7 490 a7 7 0 1 0 14 0 a7 7 0 1 0 -14 0zM-67.62 455 a7 7 0 1 0 14 0 a7 7 0 1 0 -14 0zM-67.62 385 a7 7 0 1 0 14 0 a7 7 0 1 0 -14 0zM114.25 490 a7 7 0 1 0 14 0 a7 7 0 1 0 -14 0zM114.25 560 a7 7 0 1 0 14 0 a7 7 0 1 0 -14 0zM53.62 595 a7 7 0 1 0 14 0 a7 7 0 1 0 -14 0zM-7 560 a7 7 0 1 0 14 0 a7 7 0 1 0 -14 0zM114.25 -70 a7 7 0 1 0 14 0 a7 7 0 1 0 -14 0zM174.87 -35 a7 7 0 1 0 14 0 a7 7 0 1 0 -14 0zM174.87 35 a7 7 0 1 0 14 0 a7 7 0 1 0 -14 0zM235.49 70 a7 7 0 1 0 14 0 a7 7 0 1 0 -14 0zM235.49 140 a7 7 0 1 0 14 0 a7 7 0 1 0 -14 0zM174.87 175 a7 7 0 1 0 14 0 a7 7 0 1 0 -14 0zM174.87 245 a7 7 0 1 0 14 0 a7 7 0 1 0 -14 0zM235.49 280 a7 7 0 1 0 14 0 a7 7 0 1 0 -14 0zM235.49 350 a7 7 0 1 0 14 0 a7 7 0 1 0 -14 0zM174.87 385 a7 7 0 1 0 14 0 a7 7 0 1 0 -14 0zM174.87 455 a7 7 0 1 0 14 0 a7 7 0 1 0 -14 0zM235.49 490 a7 7 0 1 0 14 0 a7 7 0 1 0 -14 0zM235.49 560 a7 7 0 1 0 14 0 a7 7 0 1 0 -14 0zM174.87 595 a7 7 0 1 0 14 0 a7 7 0 1 0 -14 0zM235.49 -70 a7 7 0 1 0 14 0 a7 7 0 1 0 -14 0zM296.12 -35 a7 7 0 1 0 14 0 a7 7 0 1 0 -14 0zM296.12 35 a7 7 0 1 0 14 0 a7 7 0 1 0 -14 0zM356.74 70 a7 7 0 1 0 14 0 a7 7 0 1 0 -14 0zM356.74 140 a7 7 0 1 0 14 0 a7 7 0 1 0 -14 0zM296.12 175 a7 7 0 1 0 14 0 a7 7 0 1 0 -14 0zM296.12 245 a7 7 0 1 0 14 0 a7 7 0 1 0 -14 0zM356.74 280 a7 7 0 1 0 14 0 a7 7 0 1 0 -14 0zM356.74 350 a7 7 0 1 0 14 0 a7 7 0 1 0 -14 0zM296.12 385 a7 7 0 1 0 14 0 a7 7 0 1 0 -14 0zM296.12 455 a7 7 0 1 0 14 0 a7 7 0 1 0 -14 0zM356.74 490 a7 7 0 1 0 14 0 a7 7 0 1 0 -14 0zM356.74 560 a7 7 0 1 0 14 0 a7 7 0 1 0 -14 0zM296.12 595 a7 7 0 1 0 14 0 a7 7 0 1 0 -14 0zM356.74 -70 a7 7 0 1 0 14 0 a7 7 0 1 0 -14 0zM417.36 -35 a7 7 0 1 0 14 0 a7 7 0 1 0 -14 0zM417.36 35 a7 7 0 1 0 14 0 a7 7 0 1 0 -14 0zM477.99 70 a7 7 0 1 0 14 0 a7 7 0 1 0 -14 0zM477.99 140 a7 7 0 1 0 14 0 a7 7 0 1 0 -14 0zM417.36 175 a7 7 0 1 0 14 0 a7 7 0 1 0 -14 0zM417.36 245 a7 7 0 1 0 14 0 a7 7 0 1 0 -14 0zM477.99 280 a7 7 0 1 0 14 0 a7 7 0 1 0 -14 0zM477.99 350 a7 7 0 1 0 14 0 a7 7 0 1 0 -14 0zM417.36 385 a7 7 0 1 0 14 0 a7 7 0 1 0 -14 0zM417.36 455 a7 7 0 1 0 14 0 a7 7 0 1 0 -14 0zM477.99 490 a7 7 0 1 0 14 0 a7 7 0 1 0 -14 0zM477.99 560 a7 7 0 1 0 14 0 a7 7 0 1 0 -14 0zM417.36 595 a7 7 0 1 0 14 0 a7 7 0 1 0 -14 0zM477.99 -70 a7 7 0 1 0 14 0 a7 7 0 1 0 -14 0zM538.61 -35 a7 7 0 1 0 14 0 a7 7 0 1 0 -14 0zM538.61 35 a7 7 0 1 0 14 0 a7 7 0 1 0 -14 0zM599.24 70 a7 7 0 1 0 14 0 a7 7 0 1 0 -14 0zM599.24 140 a7 7 0 1 0 14 0 a7 7 0 1 0 -14 0zM538.61 175 a7 7 0 1 0 14 0 a7 7 0 1 0 -14 0zM538.61 245 a7 7 0 1 0 14 0 a7 7 0 1 0 -14 0zM599.24 280 a7 7 0 1 0 14 0 a7 7 0 1 0 -14 0zM599.24 350 a7 7 0 1 0 14 0 a7 7 0 1 0 -14 0zM538.61 385 a7 7 0 1 0 14 0 a7 7 0 1 0 -14 0zM538.61 455 a7 7 0 1 0 14 0 a7 7 0 1 0 -14 0zM599.24 490 a7 7 0 1 0 14 0 a7 7 0 1 0 -14 0zM599.24 560 a7 7 0 1 0 14 0 a7 7 0 1 0 -14 0zM538.61 595 a7 7 0 1 0 14 0 a7 7 0 1 0 -14 0zM599.24 -70 a7 7 0 1 0 14 0 a7 7 0 1 0 -14 0zM659.86 -35 a7 7 0 1 0 14 0 a7 7 0 1 0 -14 0zM659.86 35 a7 7 0 1 0 14 0 a7 7 0 1 0 -14 0zM720.48 70 a7 7 0 1 0 14 0 a7 7 0 1 0 -14 0zM720.48 140 a7 7 0 1 0 14 0 a7 7 0 1 0 -14 0zM659.86 175 a7 7 0 1 0 14 0 a7 7 0 1 0 -14 0zM659.86 245 a7 7 0 1 0 14 0 a7 7 0 1 0 -14 0zM720.48 280 a7 7 0 1 0 14 0 a7 7 0 1 0 -14 0zM720.48 350 a7 7 0 1 0 14 0 a7 7 0 1 0 -14 0zM659.86 385 a7 7 0 1 0 14 0 a7 7 0 1 0 -14 0zM659.86 455 a7 7 0 1 0 14 0 a7 7 0 1 0 -14 0zM720.48 490 a7 7 0 1 0 14 0 a7 7 0 1 0 -14 0zM720.48 560 a7 7 0 1 0 14 0 a7 7 0 1 0 -14 0zM659.86 595 a7 7 0 1 0 14 0 a7 7 0 1 0 -14 0zM720.48 -70 a7 7 0 1 0 14 0 a7 7 0 1 0 -14 0zM781.11 -35 a7 7 0 1 0 14 0 a7 7 0 1 0 -14 0zM781.11 35 a7 7 0 1 0 14 0 a7 7 0 1 0 -14 0zM841.73 70 a7 7 0 1 0 14 0 a7 7 0 1 0 -14 0zM841.73 140 a7 7 0 1 0 14 0 a7 7 0 1 0 -14 0zM781.11 175 a7 7 0 1 0 14 0 a7 7 0 1 0 -14 0zM781.11 245 a7 7 0 1 0 14 0 a7 7 0 1 0 -14 0zM841.73 280 a7 7 0 1 0 14 0 a7 7 0 1 0 -14 0zM841.73 350 a7 7 0 1 0 14 0 a7 7 0 1 0 -14 0zM781.11 385 a7 7 0 1 0 14 0 a7 7 0 1 0 -14 0zM781.11 455 a7 7 0 1 0 14 0 a7 7 0 1 0 -14 0zM841.73 490 a7 7 0 1 0 14 0 a7 7 0 1 0 -14 0zM841.73 560 a7 7 0 1 0 14 0 a7 7 0 1 0 -14 0zM781.11 595 a7 7 0 1 0 14 0 a7 7 0 1 0 -14 0zM841.73 -70 a7 7 0 1 0 14 0 a7 7 0 1 0 -14 0zM902.35 -35 a7 7 0 1 0 14 0 a7 7 0 1 0 -14 0zM902.35 35 a7 7 0 1 0 14 0 a7 7 0 1 0 -14 0zM962.98 70 a7 7 0 1 0 14 0 a7 7 0 1 0 -14 0zM962.98 140 a7 7 0 1 0 14 0 a7 7 0 1 0 -14 0zM902.35 175 a7 7 0 1 0 14 0 a7 7 0 1 0 -14 0zM902.35 245 a7 7 0 1 0 14 0 a7 7 0 1 0 -14 0zM962.98 280 a7 7 0 1 0 14 0 a7 7 0 1 0 -14 0zM962.98 350 a7 7 0 1 0 14 0 a7 7 0 1 0 -14 0zM902.35 385 a7 7 0 1 0 14 0 a7 7 0 1 0 -14 0zM902.35 455 a7 7 0 1 0 14 0 a7 7 0 1 0 -14 0zM962.98 490 a7 7 0 1 0 14 0 a7 7 0 1 0 -14 0zM962.98 560 a7 7 0 1 0 14 0 a7 7 0 1 0 -14 0zM902.35 595 a7 7 0 1 0 14 0 a7 7 0 1 0 -14 0zM962.98 -70 a7 7 0 1 0 14 0 a7 7 0 1 0 -14 0zM1023.6 -35 a7 7 0 1 0 14 0 a7 7 0 1 0 -14 0zM1023.6 35 a7 7 0 1 0 14 0 a7 7 0 1 0 -14 0zM1084.22 70 a7 7 0 1 0 14 0 a7 7 0 1 0 -14 0zM1084.22 140 a7 7 0 1 0 14 0 a7 7 0 1 0 -14 0zM1023.6 175 a7 7 0 1 0 14 0 a7 7 0 1 0 -14 0zM1023.6 245 a7 7 0 1 0 14 0 a7 7 0 1 0 -14 0zM1084.22 280 a7 7 0 1 0 14 0 a7 7 0 1 0 -14 0zM1084.22 350 a7 7 0 1 0 14 0 a7 7 0 1 0 -14 0zM1023.6 385 a7 7 0 1 0 14 0 a7 7 0 1 0 -14 0zM1023.6 455 a7 7 0 1 0 14 0 a7 7 0 1 0 -14 0zM1084.22 490 a7 7 0 1 0 14 0 a7 7 0 1 0 -14 0zM1084.22 560 a7 7 0 1 0 14 0 a7 7 0 1 0 -14 0zM1023.6 595 a7 7 0 1 0 14 0 a7 7 0 1 0 -14 0zM1084.22 -70 a7 7 0 1 0 14 0 a7 7 0 1 0 -14 0zM1144.85 -35 a7 7 0 1 0 14 0 a7 7 0 1 0 -14 0zM1144.85 35 a7 7 0 1 0 14 0 a7 7 0 1 0 -14 0zM1205.47 70 a7 7 0 1 0 14 0 a7 7 0 1 0 -14 0zM1205.47 140 a7 7 0 1 0 14 0 a7 7 0 1 0 -14 0zM1144.85 175 a7 7 0 1 0 14 0 a7 7 0 1 0 -14 0zM1144.85 245 a7 7 0 1 0 14 0 a7 7 0 1 0 -14 0zM1205.47 280 a7 7 0 1 0 14 0 a7 7 0 1 0 -14 0zM1205.47 350 a7 7 0 1 0 14 0 a7 7 0 1 0 -14 0zM1144.85 385 a7 7 0 1 0 14 0 a7 7 0 1 0 -14 0zM1144.85 455 a7 7 0 1 0 14 0 a7 7 0 1 0 -14 0zM1205.47 490 a7 7 0 1 0 14 0 a7 7 0 1 0 -14 0zM1205.47 560 a7 7 0 1 0 14 0 a7 7 0 1 0 -14 0zM1144.85 595 a7 7 0 1 0 14 0 a7 7 0 1 0 -14 0zM1205.47 -70 a7 7 0 1 0 14 0 a7 7 0 1 0 -14 0zM1266.09 -35 a7 7 0 1 0 14 0 a7 7 0 1 0 -14 0zM1266.09 35 a7 7 0 1 0 14 0 a7 7 0 1 0 -14 0zM1326.72 70 a7 7 0 1 0 14 0 a7 7 0 1 0 -14 0zM1326.72 140 a7 7 0 1 0 14 0 a7 7 0 1 0 -14 0zM1266.09 175 a7 7 0 1 0 14 0 a7 7 0 1 0 -14 0zM1266.09 245 a7 7 0 1 0 14 0 a7 7 0 1 0 -14 0zM1326.72 280 a7 7 0 1 0 14 0 a7 7 0 1 0 -14 0zM1326.72 350 a7 7 0 1 0 14 0 a7 7 0 1 0 -14 0zM1266.09 385 a7 7 0 1 0 14 0 a7 7 0 1 0 -14 0zM1266.09 455 a7 7 0 1 0 14 0 a7 7 0 1 0 -14 0zM1326.72 490 a7 7 0 1 0 14 0 a7 7 0 1 0 -14 0zM1326.72 560 a7 7 0 1 0 14 0 a7 7 0 1 0 -14 0zM1266.09 595 a7 7 0 1 0 14 0 a7 7 0 1 0 -14 0zM1326.72 -70 a7 7 0 1 0 14 0 a7 7 0 1 0 -14 0zM1387.34 -35 a7 7 0 1 0 14 0 a7 7 0 1 0 -14 0zM1387.34 35 a7 7 0 1 0 14 0 a7 7 0 1 0 -14 0zM1447.96 70 a7 7 0 1 0 14 0 a7 7 0 1 0 -14 0zM1447.96 140 a7 7 0 1 0 14 0 a7 7 0 1 0 -14 0zM1387.34 175 a7 7 0 1 0 14 0 a7 7 0 1 0 -14 0zM1387.34 245 a7 7 0 1 0 14 0 a7 7 0 1 0 -14 0zM1447.96 280 a7 7 0 1 0 14 0 a7 7 0 1 0 -14 0zM1447.96 350 a7 7 0 1 0 14 0 a7 7 0 1 0 -14 0zM1387.34 385 a7 7 0 1 0 14 0 a7 7 0 1 0 -14 0zM1387.34 455 a7 7 0 1 0 14 0 a7 7 0 1 0 -14 0zM1447.96 490 a7 7 0 1 0 14 0 a7 7 0 1 0 -14 0zM1447.96 560 a7 7 0 1 0 14 0 a7 7 0 1 0 -14 0zM1387.34 595 a7 7 0 1 0 14 0 a7 7 0 1 0 -14 0z" fill="rgba(0, 0, 0, 0.88)"></path></g><defs><mask id="SvgjsMask1149"><rect width="1440" height="560" fill="#ffffff"></rect></mask></defs></svg>